<svg height="100%" style="fill-rule:evenodd;clip-rule:evenodd;stroke-linejoin:round;stroke-miterlimit:2;" version="1.1" viewBox="0 0 32 32" width="100%" xml:space="preserve" xmlns="http://www.w3.org/2000/svg" xmlns:serif="http://www.serif.com/" xmlns:xlink="http://www.w3.org/1999/xlink"><path d="M10.772,19.814l-7.479,7.479c-0.39,0.39 -0.39,1.024 -0,1.414c0.39,0.39 1.024,0.39 1.414,0l7.579,-7.579c1.629,1.149 3.615,1.825 5.757,1.825c5.52,-0 10,-4.481 10,-10c0,-5.52 -4.48,-10 -10,-10c-5.519,-0 -10,4.48 -10,10c0,2.655 1.038,5.07 2.729,6.861Zm7.271,-14.861c4.416,-0 8,3.584 8,8c0,4.415 -3.584,8 -8,8c-4.415,-0 -8,-3.585 -8,-8c0,-4.416 3.585,-8 8,-8Z"/></svg>